<?xml version="1.0" encoding="utf-8"?>
<!-- Generator: Adobe Illustrator 27.9.0, SVG Export Plug-In . SVG Version: 6.00 Build 0)  -->
<svg version="1.1" id="Layer_1" xmlns="http://www.w3.org/2000/svg" xmlns:xlink="http://www.w3.org/1999/xlink" x="0px" y="0px"
	 viewBox="0 0 1080 1080" style="enable-background:new 0 0 1080 1080;" xml:space="preserve">
<style type="text/css">
	.st0{fill:#FFE09E;}
	.st1{clip-path:url(#SVGID_00000024693576541808313110000004157179943887612547_);}
	.st2{fill:#1089FF;}
	.st3{fill:#2B114F;}
</style>
<g id="Cart">
	<circle id="Ellipse_920" class="st0" cx="540.4" cy="539.9" r="539.6"/>
</g>
<g id="Vector_Smart_Object" transform="translate(-2887.95 -17.95)">
	<g id="Vector_Smart_Object-2" transform="translate(2898 28)">
		<g id="Group_28">
			<g>
				<defs>
					<rect id="SVGID_1_" x="268.2" y="267.6" width="496.8" height="524.4"/>
				</defs>
				<clipPath id="SVGID_00000081638705016028097180000000999303548557267330_">
					<use xlink:href="#SVGID_1_"  style="overflow:visible;"/>
				</clipPath>
				<g id="Group_27" style="clip-path:url(#SVGID_00000081638705016028097180000000999303548557267330_);">
					<path id="Path_135" class="st2" d="M291.8,315.3c-13.2-0.4-23.5-11.5-23-24.6c0.4-12.5,10.5-22.6,23-23h7.7
						c10.7,0,20,0,27.7,0.6c8.4,0.4,16.7,2.3,24.5,5.7c12.2,5.5,22.7,14.4,30.1,25.6c4.5,7.2,7.8,15.1,9.6,23.4
						c1.2,4.7,2.2,10.2,3.2,16.1h279.3c50.5,0.2,91.2,41.2,91.1,91.6c0,0,0,0,0,0.1c0,11.6-1,23.1-2.8,34.6l-1.7,11.4
						c-3.4,22.1-6.1,39.9-9.4,54.3c-2.8,14-8,27.5-15.5,39.7c-19.9,32-54.4,51.9-92,53.2c-14.7,1.1-32.6,1.1-54.7,1.1h-49.3
						c-22.4,0-40.5,0-55.2-1.1c-14.3-0.7-28.5-3.9-41.6-9.5c-20.6-9.4-38.1-24.6-50.4-43.7c-7.5-12.3-12.8-25.9-15.5-40.1
						c-3.3-14.6-6-32.6-9.3-54.9l-16.3-109.1l-1.2-7.6c-1.9-11.7-3.2-19.1-4.6-24.8c-0.5-2.9-1.6-5.7-3-8.3c-2.5-3.7-5.9-6.7-10-8.6
						c-2.8-1-5.7-1.6-8.7-1.6c-5.7-0.4-13.2-0.4-25-0.4L291.8,315.3z M670.3,649c-39.5-0.3-71.8,31.5-72.1,71
						c-0.3,39.5,31.5,71.8,71,72.1s71.8-31.5,72.1-71c0-0.2,0-0.4,0-0.5C741.4,681.2,709.7,649.1,670.3,649
						C670.3,649,670.3,649,670.3,649 M433.8,649c-39.5-0.3-71.8,31.5-72.1,71c-0.3,39.5,31.5,71.8,71,72.1s71.8-31.5,72.1-71
						c0-0.2,0-0.4,0-0.5C504.9,681.2,473.1,649.1,433.8,649C433.8,649,433.8,649,433.8,649"/>
				</g>
			</g>
		</g>
	</g>
	<path id="Color_Overlay" class="st3" d="M3497.4,748.5c0.3-39.2,32.3-70.8,71.5-70.5c39.2,0.3,70.8,32.3,70.5,71.5
		c-0.3,39-32,70.5-71,70.5C3529,819.9,3497.2,787.9,3497.4,748.5C3497.4,748.5,3497.4,748.5,3497.4,748.5z M3260.8,748.5
		c0.3-39.2,32.3-70.7,71.5-70.4c39.2,0.3,70.7,32.3,70.4,71.5c-0.3,39-32,70.4-71,70.4C3292.4,819.9,3260.7,787.9,3260.8,748.5
		C3260.8,748.5,3260.8,748.5,3260.8,748.5z M3437.4,653.2c-22.3,0-40.4,0-55.2-1.1c-37.6-1.3-72.1-21.2-92-53.2
		c-7.5-12.3-12.8-25.9-15.5-40.1c-3.3-14.6-6-32.6-9.3-54.9l-16.3-109.2l-1.2-7.6c-1.9-11.7-3.2-19.1-4.6-24.8
		c-0.5-2.9-1.6-5.7-3-8.3c-2.5-3.7-5.9-6.7-10-8.6c-2.8-1-5.8-1.6-8.7-1.6c-5.7-0.4-13.2-0.4-25-0.4h-6.8
		c-13.2-0.4-23.5-11.5-23-24.6c0.4-12.5,10.5-22.6,23-23h7.7c10.7,0,20,0,27.7,0.6c22.2,0.9,42.6,12.6,54.6,31.3
		c4.5,7.2,7.8,15.1,9.6,23.5c1.2,4.7,2.2,10.2,3.2,16.1h279.3c50.5,0.2,91.2,41.2,91.1,91.6c0,0,0,0,0,0.1c0,11.6-1,23.1-2.8,34.6
		l-1.7,11.4c-3.3,22.1-6.1,39.9-9.4,54.3c-2.8,14.1-8,27.5-15.5,39.7c-12.3,19.2-29.9,34.4-50.7,43.8c-13.1,5.6-27.2,8.7-41.4,9.4
		c-14.7,1.1-32.6,1.1-54.7,1.1L3437.4,653.2z"/>
</g>
</svg>
