<?xml version="1.0" encoding="utf-8"?>
<!-- Generator: Adobe Illustrator 27.9.0, SVG Export Plug-In . SVG Version: 6.00 Build 0)  -->
<svg version="1.1" id="Layer_1" xmlns="http://www.w3.org/2000/svg" xmlns:xlink="http://www.w3.org/1999/xlink" x="0px" y="0px"
	 viewBox="0 0 1080 1080" style="enable-background:new 0 0 1080 1080;" xml:space="preserve">
<style type="text/css">
	.st0{clip-path:url(#SVGID_00000055692382694405242290000010966934988961490109_);}
	.st1{fill:#4676ED;}
	.st2{fill:#FFFFFF;}
</style>
<g id="Group_24">
	<g>
		<defs>
			<rect id="SVGID_1_" x="0" y="-0.1" width="1080" height="1080"/>
		</defs>
		<clipPath id="SVGID_00000080191927351290911630000005654000609879757749_">
			<use xlink:href="#SVGID_1_"  style="overflow:visible;"/>
		</clipPath>
		<g id="Group_23" style="clip-path:url(#SVGID_00000080191927351290911630000005654000609879757749_);">
			<path id="Path_130" class="st1" d="M1080,539.9C1080,241.7,838.2,0,539.9,0S0,241.8,0,540.1c0,265.6,193.3,491.8,455.6,533.3V696
				H318.5V539.9h137.1v-119c0-135.3,80.6-210.1,204-210.1c40.5,0.5,80.9,4,120.9,10.5v132.9h-68.1c-42.7-5.7-82,24.4-87.6,67.1
				c-0.8,5.7-0.9,11.5-0.4,17.3v101.4h149.8L750.3,696H624.4v377.3C886.8,1031.8,1080,805.6,1080,539.9"/>
			<path id="Path_131" class="st2" d="M750.2,696l23.9-156.1H624.3V438.6c-3.9-42.9,27.8-80.9,70.7-84.7c5.8-0.5,11.5-0.4,17.3,0.4
				h68V221.4c-40-6.4-80.4-9.9-120.9-10.5c-123.3,0-204,74.8-204,210.1v118.8h-137V696h137.1v377.3c55.9,8.7,112.8,8.7,168.8,0V696
				H750.2z"/>
		</g>
	</g>
</g>
</svg>
