<?xml version="1.0" encoding="utf-8"?>
<!-- Generator: Adobe Illustrator 27.9.0, SVG Export Plug-In . SVG Version: 6.00 Build 0)  -->
<svg version="1.1" id="Layer_1" xmlns="http://www.w3.org/2000/svg" xmlns:xlink="http://www.w3.org/1999/xlink" x="0px" y="0px"
	 viewBox="0 0 1080 899" style="enable-background:new 0 0 1080 899;" xml:space="preserve">
<style type="text/css">
	.st0{fill:#F7263F;}
	.st1{fill:#CC1F3C;}
	.st2{fill:#FF7683;}
</style>
<g id="Path_366" transform="translate(-0.056 -0.65)">
	<path id="Path_364" class="st0" d="M1080,303.9c0,393.3-539.4,595.6-539.4,595.6S1.1,697.3,1.1,303.9
		C-2.2,139.7,128.2,3.8,292.4,0.5c0,0,0.1,0,0.1,0c102.4,0.7,196.8,55.6,248.1,144.3C591.9,56.1,686.3,1.2,788.7,0.5
		C953,3.9,1083.4,139.7,1080,303.9z"/>
	<path id="Path_365" class="st1" d="M1080,303.9c0,393.3-539.4,595.6-539.4,595.6c-139-55.8-266.1-137.4-374.8-240.4
		C699,816.8,892.5,502.4,892.5,267.6c7.2-119.9-73.9-227.3-191.2-253.1c28.2-9.3,57.7-14,87.4-14C952.9,3.9,1083.3,139.7,1080,303.9
		z"/>
	<path id="Path_366-2" class="st2" d="M332.7,73.1C239.6,63.9,46,75.3,73.2,336.2c0.6,5.2,5.3,9,10.5,8.4c3.6-0.4,6.7-2.9,7.9-6.3
		c35.8-117,126.5-209.1,243-246.6c5-1.6,7.8-6.9,6.2-11.9C339.6,76.1,336.4,73.5,332.7,73.1z"/>
</g>
</svg>
