<?xml version="1.0" encoding="utf-8"?>
<!-- Generator: Adobe Illustrator 27.9.0, SVG Export Plug-In . SVG Version: 6.00 Build 0)  -->
<svg version="1.1" id="Layer_1" xmlns="http://www.w3.org/2000/svg" xmlns:xlink="http://www.w3.org/1999/xlink" x="0px" y="0px"
	 viewBox="0 0 1080 1080" style="enable-background:new 0 0 1080 1080;" xml:space="preserve">
<style type="text/css">
	.st0{clip-path:url(#SVGID_00000150788352185689244240000012786934345806609560_);}
	.st1{fill:#010201;}
	.st2{fill:#FFFFFF;}
	.st3{fill:#CB1C54;}
	.st4{fill:#6ABAC5;}
</style>
<g>
	<defs>
		<rect id="SVGID_1_" y="0" width="1080" height="1080"/>
	</defs>
	<clipPath id="SVGID_00000032606883619891493180000000938702509642055330_">
		<use xlink:href="#SVGID_1_"  style="overflow:visible;"/>
	</clipPath>
	<g id="Group_21" style="clip-path:url(#SVGID_00000032606883619891493180000000938702509642055330_);">
		<path id="Path_122" class="st1" d="M1080,540c0,298.2-241.8,540-540,540S0,838.2,0,540S241.8,0,540,0S1080,241.8,1080,540"/>
		<path id="Path_123" class="st2" d="M395.9,756.7l2,1.8c6,4.3,10.5,10.5,16,14.9c17.2,14,38.4,22.2,60.6,23.4
			c54.4,2.9,101.6-37.1,107.7-91.1c0.2-2.6,0.3-5.2,0.2-7.9V213.2c0-10.9,0-10.9,10.9-10.9h73.6c2.4-0.4,4.8-0.1,7,1l0.5,0.3
			c1,1.2,1.7,2.8,1.9,4.4c8.7,42.2,33.1,79.6,68.2,104.5c2.2,1.6,4.1,3.7,6.3,5.4l4.7,4c5.3,3.8,10.3,8.1,14.9,12.8
			c19.6,16.4,42.6,28.2,67.3,34.4c2.2,0.6,4.7,0.5,6.3,2.6c0.1,0.1,0.2,0.3,0.4,0.3c1.1,1.6,1.6,3.5,1.2,5.4c0,28.5,0,56.9,0,85.4
			c0,6.5-0.9,7-7.5,7c-20.8-0.1-41.4-2.6-61.6-7.4c-34.5-8-67.4-22.2-96.9-41.8c-1.6-1-3.2-3.2-4.8-2.4c-1.6,0.8-1,3.7-1,5.6
			c0,80.1,0.3,160.3,0,240.4c0,116.4-87.2,214.4-202.8,227.9c-44.8,5.5-90.3-2.6-130.5-23.1c-6.7-3.3-13.1-7.2-19-11.6l-5.6-5
			c-13.5-12.1-24.8-26.5-33.3-42.5c-22-37.9-32.7-81.2-31-125c4.3-94.6,66.3-176.9,156.1-207c17-5.8,34.7-9.4,52.7-10.7
			c3.3-0.5,6.7-0.8,10-0.8c1.6-0.2,3.2,0.2,4.6,1c0.1,0.1,0.3,0.3,0.5,0.3c0.7,1.6,0.9,3.4,0.7,5.1c0,28.9,0,57.8,0,86.7
			c0,1,0,2.1,0,3.1c0,2.9-1.6,3.9-4.4,3.1c-7.9-2.1-16-3.4-24.2-3.7c-12.6-0.7-25.2,1.2-37,5.5c-53.7,18.3-82.4,76.7-64.1,130.4
			c7.4,21.7,21.8,40.2,40.9,52.8C390.3,752.7,393.2,754.5,395.9,756.7"/>
		<path id="Path_124" class="st3" d="M321.1,857.5c1.5-0.4,2.4,0.8,3.5,1.5c25.6,15.7,54,26.1,83.6,30.8c15,2.5,30.1,3.4,45.3,2.6
			c100.2-4.3,185.8-73.4,211.3-170.3c3.9-15,6.2-30.3,7-45.7c0.5-8.9,0.4-17.8,0.4-26.7c0-76.4,0-152.8,0-229.2v-5.2
			c2-0.5,2.9,0.9,4,1.7c27,18.6,56.9,32.5,88.5,41.2c17.4,4.8,35.3,8,53.3,9.6c7.6,0.7,15.2,0.6,22.7,1.1c3.5,0.2,3.5,0,3.5-3.5
			s0-7.3,0-10.9c0-25.9,0-51.7,0-77.6c0-1.6,0-3.2,0-4.8c7,0.8,13.5,2.2,20.4,2.8c4.2,0.4,8.4,0.6,12.7,0.6c2.1,0,3,0.7,2.8,2.8
			c0,0.9,0,1.7,0,2.6v112.2c0,0.7,0,1.5,0,2.2c0,3.2,0,3.5-3.5,3.5c-11.7,0-23.3-0.8-34.8-2.3c-46.4-6-90.7-23-129.2-49.5
			c-1.2-0.8-2.4-1.5-4.2-2.7v5.2c0,81.7,0,163.3,0,245c0.2,125.8-101.6,227.9-227.4,228c-5.5,0-11-0.2-16.5-0.6
			c-52.5-3.5-102.1-25.1-140.3-61.2c-1.1-1-2-2.1-3-3.2"/>
		<path id="Path_125" class="st4" d="M673.6,203.3c-1.6,0-3.2,0.2-4.8,0.2h-78.9c-6.1,0-6.1,0-6.1,5.9c0,160.7,0,321.4,0,482.1
			c0.3,11.1-1.1,22.2-4.3,32.8c-16.9,55.2-75.3,86.3-130.5,69.4c-19.6-6-37-17.6-50.1-33.4c-0.4-0.6-0.8-1.2-1.1-1.8
			c7.9,3.4,16,6.1,24.4,8c56.5,11.7,111.8-24.6,123.5-81.2c0.3-1.4,0.6-2.8,0.8-4.2c0.9-5.9,1.3-11.9,1.2-17.9c0-161,0-322,0-483
			c0-7.5-1-6.6,6.4-6.6h114c3.8,0,3.9,0,3.8,3.9c-0.4,8.6,0.2,17.2,1.6,25.7"/>
		<path id="Path_126" class="st4" d="M474.9,467.4c-22.6,0.6-45,4.5-66.4,11.5c-72,23.8-127.5,81.8-148.1,154.8
			c-4.2,14.8-6.7,30-7.7,45.3c-4.6,63.6,17.8,126.1,61.7,172.3c0.4,0.4,0.7,0.9,1,1.4c-4.3-2.2-8.3-4.9-11.8-8.2
			c-59.4-46.3-92-119.1-87.1-194.2c6-90.2,64.8-168.2,149.8-198.9c19.5-7,39.9-11.4,60.6-12.9c15-1.1,30.1-0.8,45,1
			c2,0.2,3.2,0.7,3.2,3c0,8.3,0,16.7-0.2,25"/>
		<path id="Path_127" class="st3" d="M395.9,756.7c-9.1-4.2-17.3-10-24.4-17c-17.7-16.7-28.8-39.1-31.4-63.3
			c-6.4-57.2,34.7-108.7,91.9-115.1c13.2-1.5,26.6-0.4,39.4,3.1c1.1,0.5,2.3,0.6,3.5,0.5c0.4-1.6,0.5-3.2,0.3-4.8
			c0-29.2,0-58.4,0-87.7c0-1.6,0-3.2,0.2-4.8c11.2-0.5,22.5,0,33.7,1.5c1.8,0.2,2.2,1,2.2,2.5c0,0.9,0,1.7,0,2.6
			c0,38.7,0,77.4,0,116.1c0.3,1.5,0.1,3-0.6,4.4c-5.1-0.9-10.1-2.5-15.3-3.2c-28.7-4.6-58,3.2-80.5,21.5c-20.4,15.7-34,38.6-37.9,64
			c-4.8,26.8,1.4,54.4,17.1,76.6c0.7,1,1.2,2,1.8,3"/>
		<path id="Path_128" class="st3" d="M750.5,317.9c-11.1-6.7-21.2-14.9-30.2-24.4c-24-24.4-40.1-55.4-46.2-89c0-0.3,0-0.6,0-0.9
			c10.5-0.6,20.9,0,31.4-0.3c1.9,0,2.7,0.7,2.5,2.6c0,0.7,0,1.5,0,2.2c-0.1,28.8,7.7,57,22.5,81.6c5.2,9,11.2,17.5,17.9,25.3
			c0.7,0.9,1.8,1.6,1.9,2.9"/>
		<path id="Path_129" class="st4" d="M843.8,371.7c-29.4-6.2-56.7-20.1-79.1-40.2c-3.5-2.9-6.7-6.1-9.5-9.6c1,0,2,0.4,2.8,1.1
			c18,10.3,37.7,17.3,58.1,20.6c8.1,1.4,16.2,2.1,24.4,2.1c3.5,0,3.5,0,3.5,3.5c0,7.6,0,15.1-0.2,22.7"/>
	</g>
</g>
</svg>
