<svg xmlns="http://www.w3.org/2000/svg" viewBox="0 0 355.97 83.64"><defs><style>.cls-1{fill:#d54613;}</style></defs><g id="Capa_2" data-name="Capa 2"><g id="Capa_3" data-name="Capa 3"><path class="cls-1" d="M13.72,73C6.12,73,0,67.49,0,60.68V48.18c0-2.24,1.47-3.56,4-3.56H9.64c2.49,0,4,1.32,4,3.56v12.9c0,1,2.27,1,2.27,0V47.36a4.19,4.19,0,0,0-1.71-3.45l-10-8.24c-3.07-2.54-4.2-5-4.2-8.53V12.3C0,5.49,6.12,0,13.72,0h2c7.6,0,13.72,5.49,13.72,12.3V25c0,2.24-1.47,3.56-4,3.56H19.84c-2.49,0-4-1.32-4-3.56V11.89c0-1-2.27-1-2.27,0V25.61a4.2,4.2,0,0,0,1.7,3.46l10,8.23c3.06,2.54,4.19,5,4.19,8.54V60.68C29.48,67.49,23.36,73,15.76,73Z"/><path class="cls-1" d="M31.75,4.47c0-2.23,1.48-3.56,4-3.56h4.54c2.49,0,4,1.33,4,3.56v64c0,2.24-1.48,3.56-4,3.56H35.72c-2.49,0-4-1.32-4-3.56Z"/><path class="cls-1" d="M46.72,65.55V22.77c0-2.24,1.48-3.56,4-3.56h4.54c2.49,0,4,1.32,4,3.56V59c0,1,2.26,1,2.26,0V22.77c0-2.24,1.48-3.56,4-3.56H70c2.49,0,4,1.32,4,3.56V68.5c0,2.24-1.48,3.56-4,3.56H66.79c-2.38,0-3.74-.92-4.19-2.54L61.92,67H60.67l-1.36,2.13a7,7,0,0,1-6.24,3.36C49.1,72.47,46.72,70.43,46.72,65.55Z"/><path class="cls-1" d="M76.55,22.77c0-2.24,1.47-3.56,4-3.56h4.64c3,0,4.54,1,3.86,2.54l-1.13,2.54h1.92l1.36-2.13a7,7,0,0,1,6.24-3.36c3.52,0,5.79,1.53,6.24,5.49h.91l1.36-2.13a7,7,0,0,1,6.23-3.36c4,0,6.35,2,6.35,6.91V68.5c0,2.24-1.47,3.56-4,3.56H110c-2.5,0-4-1.32-4-3.56V32.32c0-1-2.27-1-2.27,0V68.5c0,2.24-1.47,3.56-4,3.56H95.26c-2.5,0-4-1.32-4-3.56V32.32c0-1-2.27-1-2.27,0V68.5c0,2.24-1.47,3.56-4,3.56H80.52c-2.5,0-4-1.32-4-3.56Z"/><path class="cls-1" d="M121,4.47c0-2.23,1.47-3.56,4-3.56h4.53c2.5,0,4,1.33,4,3.56V15.86a9.14,9.14,0,0,1-1.13,4.47l-1.25,2.33h1.7l1.48-1.93a4.9,4.9,0,0,1,5-1.93c5.67,1.12,9,5.69,9,11.49V65.45c0,4.88-3.29,6.91-7.26,6.91h-1.59a6.57,6.57,0,0,1-6-3.35l-.91-1.63h-.68V68.5c0,2.24-1.47,3.56-4,3.56H125c-2.5,0-4-1.32-4-3.56Zm14.74,24.9c0-1-2.27-1-2.27,0V60.68c0,1,2.27,1,2.27,0Z"/><path class="cls-1" d="M150.37,60.37V30.49c0-7.32,5.22-12,13.84-12,8.16,0,13.38,4.67,13.38,12V46.75c0,2.24-1.48,3.56-4,3.56H162.85V61.49c0,1,2.26,1,2.26,0V57.93c0-2.23,1.48-3.55,4-3.55h4.54c2.49,0,4,1.32,4,3.55v2.44c0,7.32-5.22,12-13.84,12C155.59,72.36,150.37,67.69,150.37,60.37Zm14.74-31c0-1-2.26-1-2.26,0V41.16c0,1,2.26,1,2.26,0Z"/><path class="cls-1" d="M180,22.77c0-2.24,1.47-3.56,4-3.56h4.65c2.95,0,4.53,1,3.85,2.54l-1.13,2.54h1.93l1.36-2.13a6.54,6.54,0,0,1,5.89-3.36c4,0,6.13,2,6.13,6.91V39.43c0,2.24-1.48,3.56-4,3.56h-4c-2.49,0-4-1.32-4-3.56V32.32c0-1-2.27-1-2.27,0V68.5c0,2.24-1.47,3.56-4,3.56h-4.53c-2.5,0-4-1.32-4-3.56Z"/><path class="cls-1" d="M328.75,4.47c0-2.23,1.48-3.56,4-3.56h4.54c2.49,0,4,1.33,4,3.56V24.29H342l1.36-2.13a7,7,0,0,1,6.24-3.36c4,0,6.35,2,6.35,6.91V68.5c0,2.24-1.48,3.56-4,3.56h-4.54c-2.49,0-4-1.32-4-3.56V32.32c0-1-2.26-1-2.26,0V68.5c0,2.24-1.48,3.56-4,3.56h-4.54c-2.49,0-4-1.32-4-3.56Z"/><path class="cls-1" d="M226.81,56.09a.69.69,0,0,0,.24-.05.69.69,0,0,1-.24.05Z"/><path class="cls-1" d="M230.79,52.32a13.71,13.71,0,0,1-1,1.61A13.71,13.71,0,0,0,230.79,52.32Z"/><path class="cls-1" d="M293.4,42.74c-.08-.28-.14-.57-.21-.85h0C293.26,42.17,293.32,42.46,293.4,42.74Z"/><path class="cls-1" d="M220.72,43.46c-1.27-2-2.7-4.27-2.75-7.05-.06-3.29,1.88-6,3.35-7.79.41-.49.85-1,1.29-1.45V12.81c0-1,2.27-1,2.27,0V24.94a42.89,42.89,0,0,1,10.79-7.14c1-.46,1.91-.84,2.81-1.17V10.06c0-5.59-4-9.15-10.2-9.15H213c-2.5,0-4,1.33-4,3.56v64c0,2.24,1.47,3.56,4,3.56h5.67c2.49,0,4-1.32,4-3.56V52.32h1.45c-.32-5.8-2.1-6.82-2.51-7.52C221.29,44.36,221,43.92,220.72,43.46Z"/><path class="cls-1" d="M317.87,44.72h4.53c2.5,0,4-1.32,4-3.56V30.49c0-7.32-5.22-12-13.38-12-5.18,0-9.12,1.7-11.45,4.63a38,38,0,0,1,5.68,5.49c1.47,1.77,3.42,4.5,3.36,7.79-.05,2.78-1.49,5.05-2.75,7.05-.3.46-.57.9-.83,1.34A13.89,13.89,0,0,0,304.92,54a3.31,3.31,0,0,1-.42,2.57,2.84,2.84,0,0,1-2.39,1.24,4.24,4.24,0,0,1-2.4-.84c-.19-.13-.37-.28-.56-.43v4.27c0,7.32,5.22,12,13.39,12,8.61,0,13.83-4.67,13.83-12V50.31c0-2.24-1.47-3.56-4-3.56h-4.53c-2.5,0-4,1.32-4,3.56V61.9c0,1-2.27,1-2.27,0V29.37c0-1,2.27-1,2.27,0V41.16C313.9,43.4,315.37,44.72,317.87,44.72Z"/><path class="cls-1" d="M245,53.58c-.23,1.42.85,2.9,2.42,1.69a2.74,2.74,0,0,0,1-2.2,2,2,0,0,0-.31-1.27C246.78,49.93,245.24,52.33,245,53.58Z"/><path class="cls-1" d="M236.38,37a13.27,13.27,0,0,1,1.46-4.58,14.06,14.06,0,0,1,2.2-3.17c2.82-3.05,6.83-4.9,10.94-8.4a2.47,2.47,0,0,0,.87-1l0-.12c.28-1.27-2.08-1.76-2.88-2a13.94,13.94,0,0,0-5.11-.26,24.59,24.59,0,0,0-7.3,2.28A39.19,39.19,0,0,0,223,30c-1.51,1.83-2.89,4-2.85,6.35.05,2.7,1.91,5,3.28,7.31a16.17,16.17,0,0,1,2.35,10.66,1.26,1.26,0,0,0,.07,1c.36.53,1.18.23,1.69-.14a17.07,17.07,0,0,0,5.14-5.93A27.39,27.39,0,0,0,235.11,43,61.33,61.33,0,0,0,236.38,37Z"/><path class="cls-1" d="M262.19,65.76c1-2.26,1.06-4.84,1.08-7.32l.12-21.13a34.36,34.36,0,0,0-.48-7.24,11,11,0,0,0-8.06-8.61,2.82,2.82,0,0,0-1.62-.13h0a3.52,3.52,0,0,0-1.39,1.07c-3.81,3.94-9.61,6-12.2,10.82-1.57,2.92-1.67,6.36-2.5,9.57-.7,2.7-1.93,5.27-2.32,8a44.33,44.33,0,0,0,0,6.72c0,2.69-.22,5.48.79,8a10.26,10.26,0,0,0,5.21,5.23,18.82,18.82,0,0,0,7.34,1.58,19.39,19.39,0,0,0,8.11-1.16A11,11,0,0,0,262.19,65.76Zm-8.81-9.56c-.48,10.49-14.52,2.72-8.94-4.1A4.63,4.63,0,0,1,249,50.3C251.62,50.78,253.54,52.6,253.38,56.2Z"/><path class="cls-1" d="M264.09,72.4c-5.36,0-9.71,2.24-9.71,5s4.35,6.24,9.71,6.24,9.71-3.47,9.71-6.24S269.46,72.4,264.09,72.4Zm-.42,3.46a3.87,3.87,0,0,1-1.52,1,6.29,6.29,0,0,1-3.48.51c-2.5-.5-1.14-2.13.88-2.76C261.33,74,265.4,73.81,263.67,75.86Z"/><path class="cls-1" d="M276.67,54.1c-.22,1.42.85,2.89,2.43,1.69a2.79,2.79,0,0,0,1-2.2,2.08,2.08,0,0,0-.32-1.28C278.42,50.44,276.87,52.84,276.67,54.1Z"/><path class="cls-1" d="M308.38,36.37c.05-2.37-1.33-4.52-2.85-6.35A39.1,39.1,0,0,0,292,19.79a24.5,24.5,0,0,0-7.3-2.28,13.89,13.89,0,0,0-5.1.26c-.8.2-3.16.69-2.88,2a.27.27,0,0,0,0,.12,2.47,2.47,0,0,0,.87,1c4.1,3.5,8.11,5.35,10.93,8.4a14.06,14.06,0,0,1,2.21,3.17A13.49,13.49,0,0,1,292.17,37a58.68,58.68,0,0,0,1.26,6,28.35,28.35,0,0,0,2.42,6.22A17.17,17.17,0,0,0,301,55.16c.52.37,1.34.67,1.7.14a1.36,1.36,0,0,0,.07-1,16.11,16.11,0,0,1,2.35-10.66C306.48,41.35,308.33,39.07,308.38,36.37Z"/><path class="cls-1" d="M293.71,51.1c-.39-2.76-1.62-5.33-2.32-8-.83-3.2-.93-6.65-2.5-9.57-2.59-4.83-8.39-6.88-12.2-10.82a3.69,3.69,0,0,0-1.39-1.07h0a2.9,2.9,0,0,0-1.62.13,11,11,0,0,0-8.06,8.61,33.71,33.71,0,0,0-.48,7.24l.12,21.13c0,2.49,0,5.06,1.08,7.33a11,11,0,0,0,6,5.4,19.56,19.56,0,0,0,8.11,1.17A19,19,0,0,0,287.74,71,10.26,10.26,0,0,0,293,65.79c1-2.49.75-5.28.79-8A44.33,44.33,0,0,0,293.71,51.1Zm-18.59,5.37c-.16-3.6,1.76-5.42,4.43-5.9a4.63,4.63,0,0,1,4.51,1.8C289.64,59.19,275.6,67,275.12,56.47Z"/></g></g></svg>