<?xml version="1.0" encoding="utf-8"?>
<!-- Generator: Adobe Illustrator 27.9.0, SVG Export Plug-In . SVG Version: 6.00 Build 0)  -->
<svg version="1.1" id="Layer_1" xmlns="http://www.w3.org/2000/svg" xmlns:xlink="http://www.w3.org/1999/xlink" x="0px" y="0px"
	 viewBox="0 0 1036 1032" style="enable-background:new 0 0 1036 1032;" xml:space="preserve">
<style type="text/css">
	.st0{fill:#FDC13E;}
</style>
<path class="st0" d="M518.5,219.1c0-321.6-249.8-268.5-117.6,25C268.7-49.4,62.1,100.7,303.7,314.7c-241.6-214-369.3,7.2-60.1,104.1
	c-309.2-96.9-335.9,157.1-12.6,119.5c-323.4,37.5-244.4,280.4,37.1,114.3c-281.6,166.1-110.7,355.9,80.4,89.3
	c-191.1,266.6,42.2,370.5,109.8,48.9c-67.6,321.6,187.8,321.6,120.2,0c67.6,321.6,300.9,217.7,109.8-48.9
	c191.1,266.6,362,76.8,80.4-89.3c281.6,166.1,360.5-76.8,37.1-114.3c323.4,37.5,296.7-216.4-12.6-119.5
	c309.2-96.9,181.5-318.1-60.1-104.1c241.6-214,35-364.1-97.2-70.6C768.3-49.4,518.5-102.5,518.5,219.1z"/>
</svg>
